<svg xmlns="http://www.w3.org/2000/svg" width="64" height="64" viewBox="0 0 64 64">
  <defs>
    <linearGradient id="g" x1="0" x2="1" y1="0" y2="1">
      <stop offset="0%" stop-color="#10b981"/>
      <stop offset="100%" stop-color="#059669"/>
    </linearGradient>
  </defs>
  <rect x="0" y="0" width="64" height="64" rx="14" fill="url(#g)"/>
  <path d="M22 46V18h13.5c5.2 0 8.5 3 8.5 7.5 0 3.6-2.2 6.1-5.6 7v.2c3.8.7 6.1 3.3 6.1 7.2 0 5.1-3.8 9.1-10.5 9.1H22zm8-18h5.7c2.6 0 4.2-1.3 4.2-3.5 0-2.1-1.6-3.4-4.2-3.4H30v6.9zm0 14.1h6.6c3 0 4.9-1.6 4.9-4.2 0-2.7-1.9-4.3-4.9-4.3H30v8.5z" fill="#fff"/>
</svg>
